<svg width="600" height="267" viewBox="0 0 600 267" fill="none" xmlns="http://www.w3.org/2000/svg">
<rect width="600" height="267" fill="white"/>
<rect width="600" height="195" fill="#8C9AE5"/>
<path d="M366.047 118.97H290.768H215.488C211.637 118.97 212.01 124.186 212.01 124.186V211.365C212.01 219.437 220.954 220.43 220.954 220.43H290.768H360.581C360.581 220.43 369.525 219.437 369.525 211.365V124.186C369.525 124.186 370.022 118.97 366.047 118.97ZM290.768 124.062H361.202L290.892 186.527L290.768 186.403L290.643 186.527L220.333 124.062H290.768ZM223.563 215.339C216.233 215.339 217.103 209.129 217.103 209.129V127.539L271.264 175.723L225.799 215.339H223.563ZM290.892 215.339L290.768 215.214L290.643 215.339H233.376L271.761 182.305L275.24 179.325L288.283 191.247C288.283 191.247 289.774 192.985 290.643 192.985L290.768 193.109L290.892 192.985C291.761 192.985 293.252 191.247 293.252 191.247L306.296 179.325L309.774 182.305L348.159 215.339H290.892ZM357.973 215.339H355.737L310.271 175.599L364.432 127.415V208.881C364.432 209.005 365.302 215.339 357.973 215.339Z" fill="#5065CF"/>
<path d="M217.103 127.539V209.005C217.103 209.005 216.233 215.214 223.563 215.214H225.799L271.264 175.599L217.103 127.539Z" fill="white"/>
<path d="M290.768 186.403L290.892 186.527L361.202 124.062H290.768H220.333L290.643 186.527L290.768 186.403Z" fill="white"/>
<path d="M364.432 209.005V127.539L310.271 175.599L355.737 215.214H357.973C365.302 215.339 364.432 209.005 364.432 209.005Z" fill="white"/>
<path d="M306.296 179.2L293.252 191.122C293.252 191.122 291.761 192.861 290.892 192.861L290.768 192.985L290.643 192.861C289.774 192.861 288.283 191.122 288.283 191.122L275.24 179.2L271.761 182.181L233.376 215.339H290.643L290.768 215.214L290.892 215.339H348.159L309.774 182.181L306.296 179.2Z" fill="white"/>
<path d="M267.165 171.998L225.053 215.339H225.799L271.264 175.599L267.165 171.998Z" fill="#9BA9F3"/>
<path d="M314.37 171.998L356.606 215.339H355.861L310.271 175.599L314.37 171.998Z" fill="#9BA9F3"/>
<path d="M290.768 245.392C320.337 245.392 344.308 242.723 344.308 239.431C344.308 236.139 320.337 233.47 290.768 233.47C261.198 233.47 237.227 236.139 237.227 239.431C237.227 242.723 261.198 245.392 290.768 245.392Z" fill="#8C9AE5"/>
<path d="M367.165 142.317C378.691 142.317 388.035 132.976 388.035 121.454C388.035 109.931 378.691 100.591 367.165 100.591C355.639 100.591 346.296 109.931 346.296 121.454C346.296 132.976 355.639 142.317 367.165 142.317Z" fill="#E43B57"/>
<path d="M364.529 126.558H368.057V110.958H365.033L360.905 112.878L361.505 115.614L364.481 114.198H364.529V126.558Z" fill="white"/>
</svg>
